<svg width="500" height="200" fill="none" xmlns="http://www.w3.org/2000/svg"><g clip-path="url(#clip0)" fill="#164F9E"><path d="M268.8 64c1.4-9.8 14.4-37.8 48.2-37.8 43.4 0 64.8 43.8 25.8 81.2-11.6 11.2-38.4 37-55.6 53.4h78.2v14.8h-96.2v-16.2l65-63.8c26-25.4 14.4-55.8-16.6-55.8-28.4 0-34.8 28.4-34.8 28.4l-14-4.2zm134.719-34.8h36.2v146.4h-15v-132h-21.2V29.2z"/><path d="M268.8 64l-2.97-.424-.365 2.556 2.473.742L268.8 64zm74 43.4l-2.076-2.165-.008.007 2.084 2.158zm-55.6 53.4l-2.07-2.171-5.424 5.171h7.494v-3zm78.2 0h3v-3h-3v3zm0 14.8v3h3v-3h-3zm-96.2 0h-3v3h3v-3zm0-16.2l-2.101-2.141-.899.882v1.259h3zm65-63.8l-2.096-2.146-.005.005L334.2 95.6zm-51.4-27.4l-.862 2.873 3.081.925.708-3.139-2.927-.659zm-11.03-3.776c.609-4.267 3.925-13.159 11.177-20.956C290.1 35.778 301.032 29.2 317 29.2v-6c-17.832 0-30.3 7.423-38.447 16.182-8.048 8.653-11.932 18.661-12.723 24.194l5.94.848zM317 29.2c20.683 0 35.611 10.38 40.993 24.635 5.367 14.212 1.61 33.295-17.269 51.4l4.152 4.33c20.121-19.295 25.164-40.812 18.731-57.85C357.189 34.72 339.717 23.2 317 23.2v6zm23.716 76.042c-11.598 11.198-38.393 36.993-55.586 53.387l4.14 4.342c17.207-16.406 44.012-42.211 55.614-53.413l-4.168-4.316zM287.2 163.8h78.2v-6h-78.2v6zm75.2-3v14.8h6v-14.8h-6zm3 11.8h-96.2v6h96.2v-6zm-93.2 3v-16.2h-6v16.2h6zm-.899-14.059l65-63.8-4.202-4.282-65 63.8 4.202 4.282zm64.995-63.795c13.556-13.243 17.812-28.334 13.83-40.504C346.117 44.985 334.115 36.8 317.6 36.8v6c14.485 0 23.783 7.015 26.824 16.308 3.068 9.38.124 22.19-12.32 34.346l4.192 4.292zM317.6 36.8c-15.389 0-24.913 7.766-30.478 15.439-2.762 3.807-4.561 7.597-5.671 10.429a43.471 43.471 0 00-1.197 3.458c-.125.424-.217.763-.28 1.004l-.071.284-.02.084a.329.329 0 01-.006.026l-.002.01-.001.003c0 .002-.001.003 2.926.663s2.926.66 2.926.662v.002l-.001.001.001-.004a.471.471 0 00.009-.038l.048-.19c.046-.176.119-.447.223-.8.21-.705.544-1.733 1.031-2.976.977-2.493 2.553-5.803 4.941-9.096C296.713 49.234 304.589 42.8 317.6 42.8v-6zm-33.938 28.526l-14-4.2-1.724 5.748 14 4.2 1.724-5.748zM403.519 29.2v-3h-3v3h3zm36.2 0h3v-3h-3v3zm0 146.4v3h3v-3h-3zm-15 0h-3v3h3v-3zm0-132h3v-3h-3v3zm-21.2 0h-3v3h3v-3zm0-11.4h36.2v-6h-36.2v6zm33.2-3v146.4h6V29.2h-6zm3 143.4h-15v6h15v-6zm-12 3v-132h-6v132h6zm-3-135h-21.2v6h21.2v-6zm-18.2 3V29.2h-6v14.4h6zM66.887 136.976v2.584h-9.86v7.208h-2.686v-29.07h2.686v4.454h9.486v2.584h-9.486v4.42h8.194v2.55h-8.194v5.27h9.86zm-16.15-19.278v17.068l1.734-.714v2.482l-2.652 1.088-5.236 8.806H41.66l4.216-7.072-6.97 2.822v-2.754l9.112-3.706.068-.102v-3.91h-8.228v-2.55h8.228v-4.42h-9.418v-2.584h9.418v-4.454h2.652zm33.558.952L76 131.978h-3.128l8.33-13.328h3.094zm16.49 13.328h-3.128l-8.33-13.328h3.128l8.33 13.328zm-10.098 4.25h2.992l5.746 10.54H96.4l-1.53-2.822-20.74 1.564v-2.618l3.944-.306 6.12-14.79h2.856l-6.018 14.586 12.478-.952-2.822-5.202zm26.112-4.42v8.976l7.888-1.802v2.652l-17.816 4.114v-2.652l7.378-1.734v-9.554h-5.746v-2.584h14.688v2.584h-6.392zm15.062-9.962h-2.856l-1.428-3.842h2.89l1.394 3.842zm2.55.612v2.618h-8.024l7.922 21.692h-2.89l-7.888-21.692h-16.83v-2.618h15.878l-1.734-4.76h2.89l1.7 4.76h8.976zm23.154 1.122c2.04 2.244 3.196 5.372 3.196 8.772 0 2.108-.34 3.978-.986 5.61a10.757 10.757 0 01-2.822 3.978c-2.21 1.972-5.304 2.992-9.01 2.992h-8.058v-25.16h8.262c3.876 0 7.14 1.326 9.418 3.808zm-9.622 18.836c3.842 0 10.268-1.326 10.268-10.064 0-4.624-2.618-10.03-10.064-10.03h-5.746v20.094h5.542zm19.161 2.516h-2.516V127.83h2.516v17.102zm0-20.298h-2.516v-4.862h2.516v4.862zm3.839 18.054l1.802-1.666c.646.544 1.938 1.7 4.42 1.7s3.808-.952 4.012-2.38c.544-4.25-11.526-1.938-9.69-9.112.646-2.176 2.482-3.638 6.12-3.638 2.788 0 5.1 1.258 5.678 2.006l-1.7 1.768c-.442-.374-1.564-1.394-3.944-1.394s-3.672.816-3.842 2.414c-.408 3.468 9.86 1.734 9.86 7.752 0 4.25-4.59 4.964-6.63 4.964-2.006 0-4.59-.782-6.086-2.414zm25.697-15.096c3.332 0 5.474 1.734 6.46 2.72l-1.802 1.666c-1.224-1.19-2.89-2.04-4.658-2.04-3.604 0-6.494 2.958-6.494 6.46 0 3.468 2.992 6.426 6.562 6.426 1.802 0 3.4-.816 4.556-2.04l1.802 1.7c-.986 1.02-3.06 2.686-6.664 2.686-4.624 0-8.738-3.91-8.738-8.772 0-5.066 4.182-8.806 8.976-8.806zm17.769 0c4.862 0 8.84 3.944 8.84 8.772 0 4.862-3.978 8.806-8.84 8.806a8.808 8.808 0 01-8.806-8.806c0-4.828 3.944-8.772 8.806-8.772zm0 15.164a6.385 6.385 0 006.392-6.392c0-3.502-2.856-6.392-6.392-6.392-3.502 0-6.358 2.89-6.358 6.392 0 3.536 2.856 6.392 6.358 6.392zm21.443-15.164h.306l-1.36 2.55c-3.876.578-5.202 4.522-5.406 5.236v9.554h-2.482V127.83h2.482v2.89c1.496-1.836 3.536-3.128 6.46-3.128zm17.386-7.82h2.414v25.16h-2.414v-3.23c-1.258 1.598-3.366 3.468-6.358 3.468-5.474 0-8.738-4.454-8.738-8.806 0-4.454 3.434-8.806 8.5-8.806 3.23 0 5.304 1.36 6.596 3.196v-10.982zm-6.63 22.984c3.4 0 6.154-2.856 6.154-6.392 0-3.536-2.754-6.392-6.154-6.392-3.434 0-6.188 2.856-6.188 6.392 0 3.536 2.754 6.392 6.188 6.392zM116.9 165.638v2.584h-8.942l2.856 10.71h-2.754l-2.856-10.71H93.1v-2.584h11.39l-1.666-6.29h-9.418v-2.584h8.704l-.68-2.584h2.754l.68 2.584h11.73v2.584h-11.016l1.666 6.29h9.656zm18.36-3.128l13.362-2.38-3.502 9.622h-2.55l2.38-6.562-9.078 1.598 3.808 14.144h-2.516l-3.672-13.736-4.114.748v-2.414l3.502-.612-1.088-4.08h2.482l.986 3.672zm36.074-3.808h-10.812v-2.72h10.812v2.72zm11.084.612h3.808l-19.618 19.618H162.8l19.618-19.618zm34.136-7.378a2.496 2.496 0 00-2.482 2.482c0 1.394 1.122 2.516 2.482 2.516a2.51 2.51 0 002.516-2.516c0-1.36-1.122-2.482-2.516-2.482zm0-1.156c2.04 0 3.672 1.632 3.672 3.638a3.657 3.657 0 01-3.672 3.672c-2.006 0-3.638-1.632-3.638-3.672a3.642 3.642 0 013.638-3.638zm-13.804 3.4h2.754l-9.01 24.752h-2.754l9.01-24.752zm6.358 2.686h2.822l8.024 22.066h-2.822l-8.024-22.066zm44.744 22.066h-3.468l-9.316-11.118-9.316 11.118h-3.468l18.462-21.998h-17.544v-2.618h23.188l-9.588 11.458 11.05 13.158zM103.472 29.864v8.424h-28.62v71.496h-8.208V38.288H38.132v-8.424h65.34zm66.753 12.096c6.48 7.128 10.152 17.064 10.152 27.864 0 6.696-1.08 12.636-3.132 17.82-2.052 4.968-5.076 9.18-8.964 12.636-7.02 6.264-16.848 9.504-28.62 9.504h-25.596v-79.92h26.244c12.312 0 22.68 4.212 29.916 12.096zm-30.564 59.832c12.204 0 32.616-4.212 32.616-31.968 0-14.688-8.316-31.86-31.968-31.86h-18.252v63.828h17.604zm83.221 8.748c-24.3 0-30.348-17.28-30.348-33.696v-46.98h8.1v47.628c0 11.016 4.32 25.056 22.248 25.056s22.356-14.04 22.356-25.056V29.864h8.1v46.98c0 16.416-6.048 33.696-30.456 33.696z"/><path d="M103.472 29.864h3v-3h-3v3zm0 8.424v3h3v-3h-3zm-28.62 0v-3h-3v3h3zm0 71.496v3h3v-3h-3zm-8.208 0h-3v3h3v-3zm0-71.496h3v-3h-3v3zm-28.512 0h-3v3h3v-3zm0-8.424v-3h-3v3h3zm62.34 0v8.424h6v-8.424h-6zm3 5.424h-28.62v6h28.62v-6zm-31.62 3v71.496h6V38.288h-6zm3 68.496h-8.208v6h8.208v-6zm-5.208 3V38.288h-6v71.496h6zm-3-74.496H38.132v6h28.512v-6zm-25.512 3v-8.424h-6v8.424h6zm-3-5.424h65.34v-6h-65.34v6zm132.093 9.096l2.22-2.018-.005-.005-.005-.006-2.21 2.029zm7.02 45.684l2.773 1.145.009-.02.008-.02-2.79-1.105zm-8.964 12.636l-1.993-2.242-.004.004 1.997 2.238zm-54.216 9.504h-3v3h3v-3zm0-79.92v-3h-3v3h3zm7.992 8.1v-3h-3v3h3zm0 63.828h-3v3h3v-3zm45.948-57.814c5.927 6.52 9.372 15.712 9.372 25.846h6c0-11.466-3.898-22.145-10.932-29.882l-4.44 4.036zm9.372 25.846c0 6.373-1.027 11.93-2.921 16.716l5.579 2.208c2.21-5.583 3.342-11.905 3.342-18.924h-6zm-2.904 16.675c-1.878 4.546-4.635 8.383-8.185 11.539l3.986 4.484c4.226-3.756 7.518-8.343 9.744-13.733l-5.545-2.29zm-8.189 11.543c-6.337 5.654-15.387 8.742-26.623 8.742v6c12.309 0 22.915-3.392 30.618-10.266l-3.995-4.476zm-26.623 8.742h-25.596v6h25.596v-6zm-22.596 3v-79.92h-6v79.92h6zm-3-76.92h26.244v-6h-26.244v6zm26.244 0c11.605 0 21.122 3.951 27.706 11.125l4.42-4.058c-7.888-8.594-19.106-13.067-32.126-13.067v6zm-.648 71.928c6.354 0 15.221-1.08 22.576-6.097 7.559-5.158 13.04-14.144 13.04-28.871h-6c0 13.03-4.724 20.027-10.422 23.914-5.903 4.028-13.343 5.054-19.194 5.054v6zm35.616-34.968c0-7.855-2.216-16.55-7.796-23.342-5.661-6.891-14.54-11.518-27.172-11.518v6c11.02 0 18.126 3.959 22.536 9.326 4.49 5.466 6.432 12.701 6.432 19.534h6zm-34.968-34.86h-18.252v6h18.252v-6zm-21.252 3v63.828h6V37.964h-6zm3 66.828h17.604v-6h-17.604v6zm70.477-74.928v-3h-3v3h3zm8.1 0h3v-3h-3v3zm44.604 0v-3h-3v3h3zm8.1 0h3v-3h-3v3zm-30.456 77.676c-11.345 0-17.947-3.976-21.845-9.435-4.027-5.641-5.503-13.334-5.503-21.261h-6c0 8.489 1.549 17.644 6.62 24.747 5.201 7.285 13.773 11.949 26.728 11.949v-6zm-27.348-30.696v-.048-.05-.05-.05-.051-.052-.053-.053-.054-.054-.056-.056-.056-.058-.057-.059-.06-.059-.06-.062-.061-.063-.063-.064-.064-.065-.065-.067-.066-.068-.068-.068-.07-.07-.07-.07-.072-.072-.073-.073-.074-.075-.075-.075-.076-.077-.077-.078-.079-.079-.079-.08-.08-.082-.081-.082-.083-.083-.084-.084-.085-.085-.086-.086-.087-.087-.088-.088-.09-.088-.09-.09-.09-.092-.092-.092-.092-.093-.094-.094-.094-.095-.095-.096-.096-.096-.097-.098-.098-.098-.099-.099-.1-.1-.1-.1-.102-.101-.102-.103-.102-.103-.104-.104-.104-.105-.105-.105-.106-.106-.106-.107-.108-.107-.108-.108-.109-.109-.109-.11-.11-.11-.11-.11-.112-.112-.111-.112-.113-.112-.114-.113-.113-.114-.114-.115-.114-.116-.115-.115-.116-.116-.116-.117-.117-.117-.117-.118-.117-.118-.119-.118-.12-.118-.12-.119-.12-.119-.12-.12-.12-.121-.121-.121-.122-.121-.122-.121-.122-.123-.122-.122-.123-.123-.123-.123-.123-.124-.123-.124-.124-.124-.124-.124-.125-.124-.125-.125-.124-.125-.126-.125-.125-.126-.125-.126-.125-.126-.126-.126-.126-.126-.127-.126-.126-.127-.126-.127-.126-.127-.126-.127-.127-.127-.127-.126-.127-.127-.127-.127-.127-.127-.127-.127-.127-.127-.127-.127-.127-.127-.127-.127-.127-.127-.127-.127-.127-.127-.127-.126-.127-.127-.126-.127-.126-.127-.126-.126-.127-.126-.126-.126-.126-.126-.125-.126-.126-.125-.125-.126-.125-.125-.125-.125-.124-.125-.124-.125-.124-.124-.124-.124-.123-.124-.123-.123-.123-.123-.123-.123-.122-.122-.122-.122-.122-.121-.121-.122-.12-.121-.12-.121-.12-.12-.12-.12-.119-.119-.119-.118-.118-.119-.117-.118-.117-.118-.117-.116-.117-.116-.116-.115-.116-.115-.115-.114-.114-.114-.114-.113-.114-.112-.113-.112-.112-.112-.11-.112-.11-.11-.11-.11-.11-.109-.109-.108-.108-.108-.107-.107-.107-.106-.106-.105-.105-.105-.105-.104-.103-.104-.102-.103-.102-.102-.101-.101-.1-.1-.1-.1-.099-.098-.098-.098-.097-.097-.096-.096-.095-.095-.095-.094-.093-.094-.092-.093-.091-.092-.09-.09-.09-.09-.09-.088-.088-.087-.087-.086-.086-.086-.085-.084-.084-.084-.082-.083-.082-.08-.082-.08-.08-.079-.078-.078-.078-.077-.076-.076-.075-.075-.074-.073-.073-.073-.072-.07-.071-.07-.07-.069-.068-.068-.067-.066-.066-.065-.065-.063-.064-.062-.062-.062-.06-.06-.06-.059-.058-.058-.056-.057-.055-.055-.054-.054-.053-.052-.051-.051-.05-.05-.048-.048-.048-.046-.046-.045-.045-.044-.043-.042-.041-.041-.04-.04-.038-.038-.038-.036-.036-.035-.034-.033-.033-.032-.03-.031-.03-.028-.028-.028-.026-.026-.024-.024-.024-.022-.022-.02-.02-.02-.018-.018-.016-.016-.015-.014-.014-.012-.012-.011-.01-.01-.007-.008-.006-.006-.005-.004-.003-.002-.002h-6V76.844h6zm-3-43.98h8.1v-6h-8.1v6zm8.1-3h-3V77.492h6v-.036-.037-.037-.038-.04-.04-.04-.041-.043-.043-.043-.045-.045-.046-.047-.048-.048-.05-.05-.05-.051-.052-.053-.054-.054-.055-.056-.056-.058-.058-.058-.06-.06-.06-.062-.062-.063-.063-.065-.064-.066-.066-.067-.068-.068-.069-.07-.07-.07-.072-.072-.073-.073-.074-.075-.075-.076-.076-.077-.078-.078-.08-.079-.08-.08-.082-.082-.082-.083-.084-.084-.085-.085-.086-.087-.087-.087-.088-.09-.088-.09-.09-.091-.091-.092-.093-.093-.093-.094-.094-.095-.096-.096-.096-.097-.097-.098-.098-.1-.099-.1-.1-.1-.101-.102-.102-.102-.103-.104-.104-.104-.105-.105-.105-.106-.107-.106-.108-.107-.108-.109-.108-.11-.11-.11-.11-.11-.111-.112-.112-.112-.112-.113-.114-.113-.114-.115-.114-.115-.116-.115-.116-.117-.116-.117-.118-.117-.118-.118-.119-.119-.119-.12-.119-.12-.12-.12-.121-.121-.121-.122-.122-.122-.122-.123-.123-.123-.123-.124-.123-.124-.125-.124-.125-.124-.126-.125-.125-.126-.126-.126-.126-.127-.126-.127-.127-.127-.128-.127-.128-.128-.128-.128-.128-.128-.129-.129-.129-.128-.13-.129-.13-.129-.13-.129-.13-.13-.13-.13-.13-.13-.13-.13-.131-.13-.131-.131-.13-.132-.13V56v-.13-.132-.13-.132-.131-.131-.132-.13-.132-.131-.132-.131-.132-.13-.132-.132-.131-.131-.132-.131-.131-.132-.13-.132-.131-.131-.132-.13-.132-.13-.132-.13-.131-.131-.131-.13-.131-.13-.131-.13-.13-.13-.13-.13-.13-.13-.13-.13-.13-.128-.13-.129-.129-.128-.13-.128-.128-.128-.128-.128-.128-.128-.127-.127-.128-.127-.126-.127-.126-.127-.126-.126-.125-.126-.125-.125-.125-.124-.125-.124-.124-.124-.123-.123-.123-.123-.123-.122-.122-.122-.121-.122-.12-.121-.12-.121-.12-.12-.119-.119-.119-.118-.118-.118-.118-.117-.117-.116-.117-.116-.115-.116-.114-.115-.114-.114-.114-.113-.113-.113-.112-.111-.112-.111-.11-.111-.11-.11-.108-.11-.108-.108-.107-.107-.107-.106-.106-.106-.105-.104-.104-.104-.104-.102-.103-.102-.101-.102-.1-.1-.1-.1-.098-.098-.098-.097-.097-.096-.096-.096-.094-.095-.094-.093-.093-.092-.092-.091-.09-.091-.09-.089-.088-.088-.088-.087-.086-.086-.085-.085-.084-.084-.083-.082-.082-.08-.081-.08-.08-.079-.078-.078-.077-.076-.076-.075-.075-.074-.073-.073-.072-.07-.072-.07-.07-.068-.068-.067-.067-.066-.066-.065-.064-.063-.063-.062-.061-.06-.06-.06V32v-.058-.057-.057-.055-.055-.055-.053-.053-.052-.051-.05-.05-.05-.048-.047-.047-.046-.045-.044-.044-.043-.042-.041-.041-.04-.039-.038-.037-.037-.035-.035-.034-.034-.032-.032-.03-.03-.03-.028-.027-.027-.026-.024-.024-.024-.022-.021-.02-.02-.02-.017-.017-.016-.015-.015-.013-.013-.012-.01-.01-.009-.008-.007-.006-.005-.004-.004-.002-.002h-3zm-3 47.628c0 5.815 1.126 12.763 4.92 18.345 3.92 5.77 10.446 9.711 20.328 9.711v-6c-8.046 0-12.644-3.079-15.366-7.083-2.848-4.192-3.882-9.772-3.882-14.973h-6zm25.248 28.056c9.881 0 16.429-3.94 20.376-9.701 3.822-5.58 4.98-12.529 4.98-18.355h-6c0 5.19-1.056 10.77-3.93 14.963-2.748 4.013-7.379 7.093-15.426 7.093v6zm25.356-28.056v-.036-.037-.037-.038-.04-.04-.04-.041-.043-.043-.043-.045-.045-.046-.047-.048-.048-.05-.05-.05-.051-.052-.053-.054-.054-.055-.056-.056-.058-.058-.058-.06-.06-.06-.062-.062-.063-.063-.065-.064-.066-.066-.067-.068-.068-.069-.07-.07-.07-.072-.072-.073-.073-.074-.075-.075-.076-.076-.077-.078-.078-.08-.079-.08-.08-.082-.082-.082-.083-.084-.084-.085-.085-.086-.087-.087-.087-.088-.09-.088-.09-.09-.091-.091-.092-.093-.093-.093-.094-.094-.095-.096-.096-.096-.097-.097-.098-.098-.1-.099-.1-.1-.1-.101-.102-.102-.102-.103-.104-.104-.104-.105-.105-.105-.106-.107-.106-.108-.107-.108-.109-.108-.11-.11-.11-.11-.11-.111-.112-.112-.112-.112-.113-.114-.113-.114-.115-.114-.115-.116-.115-.116-.117-.116-.117-.118-.117-.118-.118-.119-.119-.119-.12-.119-.12-.12-.12-.121-.121-.121-.122-.122-.122-.122-.123-.123-.123-.123-.124-.123-.124-.125-.124-.125-.124-.126-.125-.125-.126-.126-.126-.126-.127-.126-.127-.127-.127-.128-.127-.128-.128-.128-.128-.128-.128-.129-.129-.129-.128-.13-.129-.13-.129-.13-.129-.13-.13-.13-.13-.13-.13-.13-.13-.131-.13-.131-.131-.13-.132-.13V56v-.13-.132-.13-.132-.131-.131-.132-.13-.132-.131-.132-.131-.132-.13-.132-.132-.131-.131-.132-.131-.131-.132-.13-.132-.131-.131-.132-.13-.132-.13-.132-.13-.131-.131-.131-.13-.131-.13-.131-.13-.13-.13-.13-.13-.13-.13-.13-.13-.13-.128-.13-.129-.129-.128-.13-.128-.128-.128-.128-.128-.128-.128-.127-.127-.128-.127-.126-.127-.126-.127-.126-.126-.125-.126-.125-.125-.125-.124-.125-.124-.124-.124-.123-.123-.123-.123-.123-.122-.122-.122-.121-.122-.12-.121-.12-.121-.12-.12-.119-.119-.119-.118-.118-.118-.118-.117-.117-.116-.117-.116-.115-.116-.114-.115-.114-.114-.114-.113-.113-.113-.112-.111-.112-.111-.11-.111-.11-.11-.108-.11-.108-.108-.107-.107-.107-.106-.106-.106-.105-.104-.104-.104-.104-.102-.103-.102-.101-.102-.1-.1-.1-.1-.098-.098-.098-.097-.097-.096-.096-.096-.094-.095-.094-.093-.093-.092-.092-.091-.09-.091-.09-.089-.088-.088-.088-.087-.086-.086-.085-.085-.084-.084-.083-.082-.082-.08-.081-.08-.08-.079-.078-.078-.077-.076-.076-.075-.075-.074-.073-.073-.072-.07-.072-.07-.07-.068-.068-.067-.067-.066-.066-.065-.064-.063-.063-.062-.061-.06-.06-.06V32v-.058-.057-.057-.055-.055-.055-.053-.053-.052-.051-.05-.05-.05-.048-.047-.047-.046-.045-.044-.044-.043-.042-.041-.041-.04-.039-.038-.037-.037-.035-.035-.034-.034-.032-.032-.03-.03-.03-.028-.027-.027-.026-.024-.024-.024-.022-.021-.02-.02-.02-.017-.017-.016-.015-.015-.013-.013-.012-.01-.01-.009-.008-.007-.006-.005-.004-.004-.002-.002h-6V77.492h6zm-3-44.628h8.1v-6h-8.1v6zm8.1-3h-3V76.844h6v-.048-.05-.05-.05-.051-.052-.053-.053-.054-.054-.056-.056-.056-.058-.057-.059-.06-.059-.06-.062-.061-.063-.063-.064-.064-.065-.065-.067-.066-.068-.068-.068-.07-.07-.07-.07-.072-.072-.073-.073-.074-.075-.075-.075-.076-.077-.077-.078-.079-.079-.079-.08-.08-.082-.081-.082-.083-.083-.084-.084-.085-.085-.086-.086-.087-.087-.088-.088-.09-.088-.09-.09-.09-.092-.092-.092-.092-.093-.094-.094-.094-.095-.095-.096-.096-.096-.097-.098-.098-.098-.099-.099-.1-.1-.1-.1-.102-.101-.102-.103-.102-.103-.104-.104-.104-.105-.105-.105-.106-.106-.106-.107-.108-.107-.108-.108-.109-.109-.109-.11-.11-.11-.11-.11-.112-.112-.111-.112-.113-.112-.114-.113-.113-.114-.114-.115-.114-.116-.115-.115-.116-.116-.116-.117-.117-.117-.117-.118-.117-.118-.119-.118-.12-.118-.12-.119-.12-.119-.12-.12-.12-.121-.121-.121-.122-.121-.122-.121-.122-.123-.122-.122-.123-.123-.123-.123-.123-.124-.123-.124-.124-.124-.124-.124-.125-.124-.125-.125-.124-.125-.126-.125-.125-.126-.125-.126-.125-.126-.126-.126-.126-.126-.127-.126-.126-.127-.126-.127-.126-.127-.126-.127-.127-.127-.127-.126-.127-.127-.127-.127-.127-.127-.127-.127-.127-.127-.127-.127-.127-.127-.127-.127-.127-.127-.127-.127-.127-.127-.127-.126-.127-.127-.126-.127-.126-.127-.126-.126-.127-.126-.126-.126-.126-.126-.125-.126-.126-.125-.125-.126-.125-.125-.125-.125-.124-.125-.124-.125-.124-.124-.124-.124-.123-.124-.123-.123-.123-.123-.123-.123-.122-.122-.122-.122-.122-.121-.121-.122-.12-.121-.12-.121-.12-.12-.12-.12-.119-.119-.119-.118-.118-.119-.117-.118-.117-.118-.117-.116-.117-.116-.116-.115-.116-.115-.115-.114-.114-.114-.114-.113-.114-.112-.113-.112-.112-.112-.11-.112-.11-.11-.11-.11-.11-.109-.109-.108-.108-.108-.107-.107-.107-.106-.106-.105-.105-.105-.105-.104-.103-.104-.102-.103-.102-.102-.101-.101-.1-.1-.1-.1-.099-.098-.098-.098-.097-.097-.096-.096-.095-.095-.095-.094-.093-.094-.092-.093-.091-.092-.09-.09-.09-.09-.09-.088-.088-.087-.087-.086-.086-.086-.085-.084-.084-.084-.082-.083-.082-.08-.082-.08-.08-.079-.078-.078-.078-.077-.076-.076-.075-.075-.074-.073-.073-.073-.072-.07-.071-.07-.07-.069-.068-.068-.067-.066-.066-.065-.065-.063-.064-.062-.062-.062-.06-.06-.06-.059-.058-.058-.056-.057-.055-.055-.054-.054-.053-.052-.051-.051-.05-.05-.048-.048-.048-.046-.046-.045-.045-.044-.043-.042-.041-.041-.04-.04-.038-.038-.038-.036-.036-.035-.034-.033-.033-.032-.03-.031-.03-.028-.028-.028-.026-.026-.024-.024-.024-.022-.022-.02-.02-.02-.018-.018-.016-.016-.015-.014-.014-.012-.012-.011-.01-.01-.007-.008-.006-.006-.005-.004-.003-.002-.002h-3zm-3 46.98c0 7.927-1.476 15.618-5.514 21.257-3.909 5.459-10.538 9.439-21.942 9.439v6c13.004 0 21.603-4.66 26.82-11.945 5.088-7.105 6.636-16.262 6.636-24.751h-6z"/></g><defs><clipPath id="clip0"><path fill="#fff" d="M0 0h500v200H0z"/></clipPath></defs></svg>